<svg xmlns="http://www.w3.org/2000/svg" width="750.996" height="516.847" viewBox="0 0 750.996 516.847">
  <g id="empty-cart" transform="translate(2022 -826)">
    <g id="empty-cart-2" data-name="empty-cart" transform="translate(-2036 815)">
      <path id="Path_83" data-name="Path 83" d="M409.886,128.311c48.145-1.473,94-15.222,137.785-30.259s87.155-31.693,134.147-39.659c30.225-5.124,64.793-5.854,89.141,8.459,23.44,13.814,31.013,37.593,35.082,59.676,3.065,16.616,4.865,34.107-3.526,49.664-5.832,10.8-16.172,19.879-23.329,30.226-24.9,36-7.3,80.384,19.676,115.53,12.646,16.485,27.338,32.232,37.106,49.763s14.283,37.686,5.735,55.617c-8.466,17.761-28.647,31.075-50.511,40.448-44.4,19.043-96.707,24.49-147.745,27.582-112.946,6.828-226.487,3.874-339.73.908-41.911-1.092-84-2.2-125.228-7.933-22.9-3.184-46.531-8.236-63.157-20.431-21.1-15.478-26.327-41.685-12.185-61.09,23.715-32.561,89.268-40.646,105.864-75.582,9.12-19.234-.245-40.652-13.509-58.485-28.447-38.264-76.123-71.832-78.63-115.563-1.726-30.035,21.194-60.117,56.633-74.332,37.143-14.9,88.658-13.025,116.048,11.637C317.785,119.851,367.373,129.62,409.886,128.311Z" transform="translate(-81.226 -43.601)" fill="#f58e3b" opacity="0.1"/>
      <path id="Path_154" data-name="Path 154" d="M715.841,167.42s38-2.29,33.56,24.37c0,0,.89,4.71-3.38,6.85,0,0-.07-2-3.9-1.31a17.509,17.509,0,0,1-4.13.2,8.57,8.57,0,0,1-5.06-2.09h0s-10.69-4.41-14.85-21.89c0,0-3.08-3.82-3-4.8l6.42,2.75s-2.19,4.63-.46,8.48c0,0,.2-8.31,1.44-8.12.25,0,3.33,1.61,3.33,1.61s-3.77,8.06-.92,13.93c0,0-1.08-9.94,2.1-13.35l4.52,2.64s-4.41,8.33-1.42,15.13c0,0-.77-10.43,2.37-14.49l4.1,3.19s-4.15,8.22-1.62,13.86c0,0,.33-12.14,2.51-13.06,0,0,3.58,3.16,4.12,4.46,0,0-2.83,6-1.07,9.11,0,0,1.08-8.09,2-8.13,0,0,3.57,5.36,3.94,9a19.459,19.459,0,0,0-3.07-9.54,10.71,10.71,0,0,1,5.46,2.83s-.55-3.79-6.34-4.12c0,0-3-4.07-3.74-4.32,0,0,5.76-.48,9.25,1.07,0,0-3.07-3.57-10.31-2l-4-3.3s7.58-1,10.8.11c0,0-3.7-3.16-11.89-.86L728.2,173s6.46-1.4,10.31-.89c0,0-4.06-2.19-11.6.18l-3.15-1.41s4.74-.93,6.12-1.08,1.46-.53,1.46-.53a16.36,16.36,0,0,0-8.89,1S715.7,167.84,715.841,167.42Z" transform="translate(-96.071 -123.033)" fill="#f58e3b" opacity="0.55"/>
      <path id="Path_155" data-name="Path 155" d="M831.212,300.76s38-2.29,33.56,24.37c0,0,.89,4.71-3.38,6.85,0,0-.07-2-3.91-1.31a17.508,17.508,0,0,1-4.13.2,8.56,8.56,0,0,1-5-2.08h0s-10.7-4.42-14.86-21.9c0,0-3.07-3.81-2.95-4.79l6.42,2.74s-2.19,4.63-.47,8.48c0,0,.21-8.31,1.44-8.12.25,0,3.34,1.61,3.34,1.61s-3.78,8.07-.93,13.93c0,0-1.08-9.94,2.11-13.35l4.47,2.61s-4.41,8.33-1.42,15.13c0,0-.77-10.43,2.37-14.49l4.09,3.2s-4.14,8.21-1.62,13.85c0,0,.33-12.14,2.51-13.06,0,0,3.58,3.16,4.13,4.46,0,0-2.84,6-1.08,9.11,0,0,1.08-8.09,2-8.13,0,0,3.57,5.36,3.94,9a19.52,19.52,0,0,0-3.08-9.54,10.759,10.759,0,0,1,5.47,2.83s-.56-3.79-6.35-4.12c0,0-2.95-4.07-3.74-4.32,0,0,5.76-.48,9.25,1.07,0,0-3.07-3.57-10.3-1.95l-4-3.3s7.59-1,10.8.11c0,0-3.7-3.16-11.89-.86l-4.4-2.63s6.47-1.39,10.32-.89c0,0-4.07-2.19-11.61.18l-3.15-1.41s4.74-.93,6.13-1.08,1.46-.53,1.46-.53a16.39,16.39,0,0,0-8.9,1S831.092,301.18,831.212,300.76Z" transform="translate(-499.903 -257.033)" fill="#f58e3b" opacity="0.1"/>
      <path id="Path_156" data-name="Path 156" d="M609.024,277.09s-8.75-37.09,18.29-37.22c0,0,4.49-1.68,7.32,2.16,0,0-1.93.41-.62,4.07a17.8,17.8,0,0,1,.9,4,8.59,8.59,0,0,1-1.19,5.33h0s-2.53,11.3-19,18.38c0,0-3.24,3.68-4.22,3.72l1.6-6.79s4.94,1.37,8.44-1c0,0-8.23,1.21-8.24,0,0-.25,1-3.56,1-3.56s8.59,2.34,13.89-1.47c0,0-9.61,2.76-13.52.21l1.8-4.92s9,2.93,15.16-1.18c0,0-10.15,2.54-14.69.14l2.45-4.58s8.8,2.68,13.93-.77c0,0-12,1.74-13.3-.24,0,0,2.5-4.07,3.69-4.83,0,0,6.36,1.78,9.16-.49,0,0-8.15.31-8.34-.55,0,0,4.67-4.43,8.23-5.43a19.6,19.6,0,0,0-8.89,4.66,10.79,10.79,0,0,1,1.86-5.87s-3.64,1.2-3,7c0,0-3.5,3.6-3.61,4.42,0,0-1.45-5.59-.52-9.3,0,0-3,3.64-.17,10.49l-2.56,4.55s-2.32-7.3-1.73-10.66c0,0-2.49,4.18,1.18,11.86l-1.85,4.79s-2.47-6.14-2.63-10c0,0-1.47,4.38,2.16,11.41l-.86,3.34s-1.72-4.51-2.1-5.85-.77-1.35-.77-1.35a16.38,16.38,0,0,0,2.49,8.6S609.454,277.14,609.024,277.09Z" transform="translate(-137.865 -55.033)" fill="#f58e3b" opacity="0.1"/>
      <path id="Path_158" data-name="Path 158" d="M652,77.62s-30.52-22.84-41.43,1.9c0,0-3.33,3.45-.94,7.58,0,0,1.14-1.61,4,1.06a17.793,17.793,0,0,0,3.35,2.43,8.57,8.57,0,0,0,5.37,1h0s11.36,2.19,24.44-10.13c0,0,4.67-1.49,5.1-2.38L645,77.89s-.71,5.07-4.27,7.34c0,0,4.4-7.06,3.26-7.57-.23-.11-3.67-.5-3.67-.5S639,86,633.4,89.31c0,0,6.36-7.71,5.58-12.31l-5.23-.28s-.9,9.39-7.13,13.42c0,0,6.37-8.29,6-13.41l-5.17.42s-1.06,9.14-6.27,12.46c0,0,6.4-10.32,5.09-12.28,0,0-4.73.67-5.9,1.45,0,0-.91,6.54-4.11,8.2,0,0,3.55-7.35,2.83-7.87,0,0-5.93,2.52-8.26,5.38a19.44,19.44,0,0,1,7.82-6.28,10.7,10.7,0,0,0-6.13-.64s2.55-2.86,7.57.05c0,0,4.7-1.78,5.5-1.55,0,0-4.55-3.57-8.32-4.2,0,0,4.53-1.29,9.68,4l5.19-.53s-5.76-5-9.08-5.85c0,0,4.83-.6,10.41,5.82l5.12.22s-4.63-4.72-8.13-6.41c0,0,4.6.4,9.6,6.53l3.4.55S640,72.86,638.92,72s-.93-1.24-.93-1.24a16.4,16.4,0,0,1,6.89,5.72S651.83,78,652,77.62Z" transform="translate(-545.617 15.967)" fill="#f58e3b"/>
      <path id="Path_159" data-name="Path 159" d="M768.62,106.55s-12.2-36.11-35.21-21.92c0,0-4.7,1-5.07,5.71,0,0,1.85-.68,2.67,3.12a18,18,0,0,0,1.37,3.91,8.66,8.66,0,0,0,3.84,3.89h0s8.12,8.25,25.88,5.52c0,0,4.69,1.42,5.55.93l-5-4.91s-3.46,3.77-7.68,3.62c0,0,7.63-3.32,7-4.39-.13-.21-2.74-2.48-2.74-2.48s-6.06,6.53-12.56,6.1c0,0,9.61-2.74,11.57-7l-4.14-3.19s-6.06,7.22-13.49,7c0,0,10-3.21,12.53-7.65l-4.5-2.59s-6,6.93-12.22,6.71c0,0,11.12-4.87,11.15-7.23,0,0-4.27-2.13-5.68-2.15,0,0-4.46,4.87-8,4.43,0,0,7.08-4.05,6.78-4.88,0,0-6.3-1.29-9.85-.25a19.49,19.49,0,0,1,10-.75,10.789,10.789,0,0,0-4.69-4s3.72-.91,6.21,4.33c0,0,4.88,1.21,5.4,1.84,0,0-1.72-5.51-4.47-8.17,0,0,4.47,1.51,5.69,8.82l4.58,2.5s-1.89-7.41-4.17-10c0,0,4.33,2.24,5.27,10.69l4.1,3.09s-1.14-6.52-3.06-9.9c0,0,3.56,2.94,4.2,10.83l2.49,2.38s-.92-4.74-1.3-6.08S761,93,761,93a16.49,16.49,0,0,1,2.43,8.62S768.27,106.81,768.62,106.55Z" transform="translate(-545.617 15.967)" fill="#f58e3b"/>
      <path id="Path_160" data-name="Path 160" d="M689,108.33s-37.9-4.22-34.77,22.67c0,0-1.13,4.66,3,7,0,0,.17-2,4-1.1a18.4,18.4,0,0,0,4.12.41,8.6,8.6,0,0,0,5.15-1.83h0s10.91-3.87,16-21.12c0,0,3.26-3.65,3.19-4.64l-6.55,2.42s2,4.73,0,8.49c0,0,.21-8.31-1-8.18-.25,0-3.41,1.44-3.41,1.44s3.36,8.25.22,14c0,0,1.58-9.88-1.43-13.44l-4.65,2.4s4,8.55.65,15.19c0,0,1.3-10.38-1.63-14.59l-4.25,3s3.72,8.41.91,13.92c0,0,.29-12.14-1.84-13.17,0,0-3.74,3-4.35,4.24,0,0,2.53,6.1.62,9.15,0,0-.67-8.13-1.55-8.21,0,0-3.84,5.17-4.4,8.82a19.47,19.47,0,0,1,3.56-9.38,10.76,10.76,0,0,0-5.6,2.55s.74-3.75,6.54-3.79c0,0,3.15-3.91,4-4.12,0,0-5.73-.77-9.3.6,0,0,3.25-3.42,10.39-1.43l4.21-3.09S663.22,115,660,116c0,0,3.86-3,11.92-.25l4.53-2.41s-6.39-1.72-10.26-1.41c0,0,4.17-2,11.58.77l3.22-1.25s-4.69-1.17-6.07-1.39-1.43-.6-1.43-.6a16.45,16.45,0,0,1,8.84,1.44S689.07,108.75,689,108.33Z" transform="translate(-545.617 15.967)" fill="#f58e3b"/>
      <path id="Path_161" data-name="Path 161" d="M986.327,402.5s37.88-4.22,34.75,22.64c0,0,1.13,4.66-3,7,0,0-.17-2-4-1.11a17.3,17.3,0,0,1-4.12.41,8.53,8.53,0,0,1-5.15-1.83h0s-10.91-3.87-15.95-21.11c0,0-3.26-3.66-3.19-4.64l6.55,2.41s-2,4.74,0,8.5c0,0-.21-8.32,1-8.18.25,0,3.41,1.43,3.41,1.43s-3.36,8.25-.22,14c0,0-1.58-9.87,1.43-13.44l4.65,2.41s-4,8.55-.66,15.19c0,0-1.29-10.38,1.64-14.6l4.25,3s-3.72,8.41-.91,13.91c0,0-.29-12.14,1.84-13.16,0,0,3.73,3,4.35,4.24,0,0-2.54,6.1-.62,9.15,0,0,.67-8.13,1.55-8.21,0,0,3.84,5.17,4.4,8.82a19.47,19.47,0,0,0-3.56-9.38,10.67,10.67,0,0,1,5.6,2.55s-.74-3.76-6.54-3.8c0,0-3.16-3.91-4-4.11,0,0,5.73-.78,9.3.59,0,0-3.25-3.41-10.4-1.42l-4.2-3.09s7.52-1.42,10.79-.44c0,0-3.86-3-11.92-.26l-4.53-2.4s6.39-1.72,10.26-1.41c0,0-4.17-2-11.58.77l-3.22-1.26s4.69-1.17,6.07-1.38,1.43-.6,1.43-.6a16.39,16.39,0,0,0-8.84,1.43S986.227,402.93,986.327,402.5Z" transform="translate(-902.158 -55.033)" fill="#f58e3b" opacity="0.1"/>
      <path id="Path_162" data-name="Path 162" d="M1044.2,437.88s37.88-4.21,34.75,22.64c0,0,1.12,4.66-3,7,0,0-.17-2-4-1.1a17.652,17.652,0,0,1-4.11.4,8.64,8.64,0,0,1-5.13-1.82h0s-10.9-3.87-15.94-21.12c0,0-3.27-3.65-3.19-4.64l6.55,2.41s-2,4.74,0,8.5c0,0-.21-8.31,1-8.18.25,0,3.41,1.43,3.41,1.43s-3.36,8.25-.22,14c0,0-1.58-9.87,1.43-13.43l4.65,2.4s-4,8.55-.66,15.19c0,0-1.29-10.38,1.64-14.59l4.25,3s-3.72,8.41-.92,13.92c0,0-.28-12.15,1.85-13.17,0,0,3.73,3,4.35,4.24,0,0-2.54,6.1-.62,9.15,0,0,.67-8.13,1.55-8.21,0,0,3.84,5.17,4.39,8.82a19.52,19.52,0,0,0-3.55-9.38,10.76,10.76,0,0,1,5.6,2.55s-.75-3.76-6.55-3.79c0,0-3.15-3.91-4-4.12,0,0,5.73-.77,9.3.6,0,0-3.25-3.42-10.4-1.43l-4.2-3.09s7.52-1.42,10.79-.44c0,0-3.86-3-11.92-.25l-4.53-2.41s6.39-1.72,10.26-1.41c0,0-4.17-2-11.58.77l-3.22-1.25s4.69-1.17,6.06-1.39,1.44-.6,1.44-.6a16.45,16.45,0,0,0-8.84,1.44S1044.1,438.31,1044.2,437.88Z" transform="translate(-1017.938 -55.033)" fill="#f58e3b" opacity="0.1"/>
      <path id="Path_163" data-name="Path 163" d="M906.706,139.87s30.52-22.83,41.43,1.9c0,0,3.33,3.45.94,7.58,0,0-1.14-1.61-4,1.06a17.508,17.508,0,0,1-3.34,2.44,8.59,8.59,0,0,1-5.37,1h0s-11.36,2.19-24.45-10.12c0,0-4.66-1.5-5.1-2.38l6.87-1.24s.72,5.07,4.27,7.34c0,0-4.39-7.06-3.25-7.57.23-.11,3.66-.5,3.66-.5s1.29,8.82,6.89,12.15c0,0-6.37-7.71-5.58-12.31l5.23-.28s.89,9.39,7.13,13.43c0,0-6.38-8.29-6-13.41l5.18.42s1,9.13,6.26,12.45c0,0-6.4-10.32-5.08-12.28,0,0,4.73.67,5.9,1.45,0,0,.9,6.54,4.1,8.2,0,0-3.54-7.35-2.82-7.86,0,0,5.93,2.51,8.26,5.37a19.531,19.531,0,0,0-7.82-6.28,10.77,10.77,0,0,1,6.12-.64s-2.55-2.86-7.57.05c0,0-4.69-1.77-5.49-1.55,0,0,4.55-3.57,8.32-4.19,0,0-4.54-1.3-9.69,4l-5.19-.53s5.76-5,9.08-5.84c0,0-4.83-.61-10.4,5.81l-5.13.23s4.64-4.72,8.13-6.42c0,0-4.6.4-9.59,6.53l-3.41.55s3.45-3.38,4.53-4.26.92-1.17.92-1.17a16.441,16.441,0,0,0-6.88,5.72S906.836,140.28,906.706,139.87Z" transform="translate(-751.877 -55.033)" fill="#f58e3b" opacity="0.1"/>
      <path id="Path_164" data-name="Path 164" d="M934.01,304.69s10.52-36.63,34.18-23.48c0,0,4.74.73,5.33,5.47,0,0-1.88-.59-2.53,3.24a17.725,17.725,0,0,1-1.2,4,8.59,8.59,0,0,1-3.66,4.08h0s-7.74,8.6-25.6,6.68c0,0-4.62,1.62-5.5,1.18l4.73-5.14s3.63,3.62,7.83,3.28c0,0-7.76-3-7.16-4.07.12-.22,2.62-2.61,2.62-2.61s6.34,6.26,12.82,5.53c0,0-9.73-2.3-11.87-6.44l4-3.38s6.38,6.94,13.79,6.4c0,0-10.08-2.77-12.86-7.08l4.38-2.79s6.35,6.65,12.51,6.15c0,0-11.33-4.37-11.47-6.72,0,0,4.18-2.32,5.59-2.4,0,0,4.67,4.66,8.22,4.06,0,0-7.26-3.73-7-4.57,0,0,6.24-1.57,9.83-.7a19.51,19.51,0,0,0-10-.29,10.73,10.73,0,0,1,4.5-4.2s-3.76-.75-6,4.6c0,0-4.81,1.42-5.31,2.08,0,0,1.47-5.59,4.1-8.36,0,0-4.4,1.7-5.29,9.06l-4.46,2.71s1.56-7.5,3.72-10.14c0,0-4.22,2.43-4.79,10.91l-4,3.27s.85-6.56,2.61-10c0,0-3.43,3.1-3.71,11l-2.38,2.5s.7-4.78,1-6.14,0-1.55,0-1.55a16.39,16.39,0,0,0-2.05,8.72S934.37,304.93,934.01,304.69Z" transform="translate(-802.76 -55.033)" fill="#f58e3b" opacity="0.1"/>
      <path id="Path_165" data-name="Path 165" d="M696.031,387.23s20.43-32.18,39.4-12.92c0,0,4.34,2,3.58,6.75,0,0-1.65-1.1-3.35,2.4a17.12,17.12,0,0,1-2.26,3.46,8.541,8.541,0,0,1-4.65,2.88h0s-9.85,6.08-26.45-.8c0,0-4.89.26-5.61-.41l6-3.6s2.47,4.5,6.6,5.35c0,0-6.62-5-5.73-5.92.17-.18,3.25-1.76,3.25-1.76s4.33,7.78,10.75,8.91c0,0-8.69-4.95-9.59-9.53l4.79-2.11s4.17,8.45,11.43,10c0,0-8.9-5.49-10.35-10.41l5-1.44s4.22,8.17,10.27,9.42c0,0-9.64-7.38-9.11-9.68,0,0,4.66-1.05,6-.73,0,0,3.17,5.79,6.75,6.21,0,0-5.92-5.62-5.43-6.36,0,0,6.43.25,9.63,2.1a19.46,19.46,0,0,0-9.54-3.1,10.73,10.73,0,0,1,5.49-2.77s-3.39-1.77-7,2.73c0,0-5,0-5.69.5,0,0,3-5,6.29-6.87,0,0-4.7.4-7.62,7.21l-5.05,1.34s3.61-6.75,6.42-8.68c0,0-4.73,1.14-7.66,9.13l-4.72,2s2.66-6.05,5.33-8.88c0,0-4.16,2-6.65,9.51l-3,1.73s2-4.39,2.71-5.6.43-1.49.43-1.49a16.4,16.4,0,0,0-4.41,7.79S696.3,387.57,696.031,387.23Z" transform="translate(-445.361 -349.033)" fill="#f58e3b" opacity="0.1"/>
      <path id="Path_166" data-name="Path 166" d="M830.53,222.81s19.43-32.79,39-14.13c0,0,4.4,1.9,3.78,6.64,0,0-1.67-1.06-3.27,2.49a17.284,17.284,0,0,1-2.15,3.54,8.49,8.49,0,0,1-4.56,3h0s-9.65,6.38-26.46,0c0,0-4.88.41-5.62-.24l5.87-3.78s2.6,4.41,6.76,5.14c0,0-6.77-4.83-5.92-5.74.18-.19,3.2-1.87,3.2-1.87s4.57,7.65,11,8.58c0,0-8.84-4.68-9.87-9.22l4.72-2.22s4.43,8.33,11.74,9.66c0,0-9.07-5.21-10.67-10.08l4.94-1.6s4.48,8,10.56,9.1c0,0-9.86-7.08-9.4-9.39,0,0,4.62-1.2,6-.92,0,0,3.35,5.69,6.94,6,0,0-6.09-5.42-5.63-6.18,0,0,6.44.05,9.69,1.8a19.52,19.52,0,0,0-9.63-2.8,10.75,10.75,0,0,1,5.41-2.94s-3.45-1.67-7,2.94c0,0-5,.17-5.67.68,0,0,2.83-5,6.07-7.06,0,0-4.68.54-7.39,7.44l-5,1.5s3.39-6.86,6.15-8.88c0,0-4.7,1.29-7.38,9.36l-4.65,2.17s2.47-6.13,5-9c0,0-4.09,2.13-6.36,9.71l-2.93,1.82s1.88-4.45,2.54-5.68.38-1.5.38-1.5a16.43,16.43,0,0,0-4.17,7.92S830.82,223.14,830.53,222.81Z" transform="translate(-307.13 -123.033)" fill="#f58e3b" opacity="0.55"/>
      <path id="Path_167" data-name="Path 167" d="M718.235,291.76s-1-38.1,25.47-32.73c0,0,4.74-.73,6.74,3.61,0,0-2,0-1.44,3.85a17.556,17.556,0,0,1,.06,4.14,8.549,8.549,0,0,1-2.25,5h0s-4.77,10.54-22.38,14.12c0,0-3.91,2.95-4.89,2.79l3-6.32s4.55,2.34,8.46.75c0,0-8.3-.49-8.07-1.71,0-.25,1.72-3.29,1.72-3.29s7.94,4.05,13.89,1.39c0,0-10,.75-13.27-2.54l2.79-4.43s8.18,4.68,15.08,1.92c0,0-10.45.42-14.41-2.85l3.33-4s8.07,4.42,13.79,2.08c0,0-12.12-.73-13-2.94,0,0,3.28-3.47,4.6-4,0,0,5.86,3,9.06,1.38,0,0-8-1.34-8.05-2.23,0,0,5.47-3.39,9.16-3.64a19.469,19.469,0,0,0-9.65,2.76,10.749,10.749,0,0,1,3-5.37s-3.81.43-4.33,6.2c0,0-4.17,2.82-4.44,3.6,0,0-.29-5.77,1.38-9.21,0,0-3.68,2.95-2.3,10.23l-3.43,3.94s-.78-7.62.47-10.79c0,0-3.28,3.59-1.26,11.85l-2.77,4.31s-1.18-6.51-.55-10.34c0,0-2.32,4-.2,11.61l-1.52,3.1s-.77-4.77-.87-6.16-.48-1.48-.48-1.48a16.42,16.42,0,0,0,.69,8.93S718.675,291.89,718.235,291.76Z" transform="translate(-99.905 -123.033)" fill="#f58e3b" opacity="0.55"/>
      <ellipse id="Ellipse_23" data-name="Ellipse 23" cx="26.93" cy="4.55" rx="26.93" ry="4.55" transform="translate(175.64 518.747)" fill="#f58e3b" opacity="0.1"/>
      <ellipse id="Ellipse_24" data-name="Ellipse 24" cx="26.93" cy="4.55" rx="26.93" ry="4.55" transform="translate(444.81 504.827)" fill="#f58e3b" opacity="0.1"/>
      <ellipse id="Ellipse_25" data-name="Ellipse 25" cx="26.93" cy="4.55" rx="26.93" ry="4.55" transform="translate(676.47 451.437)" fill="#f58e3b" opacity="0.25"/>
      <ellipse id="Ellipse_26" data-name="Ellipse 26" cx="26.93" cy="4.55" rx="26.93" ry="4.55" transform="translate(279.55 503.277)" fill="#f58e3b" opacity="0.1"/>
      <ellipse id="Ellipse_73" data-name="Ellipse 73" cx="26.93" cy="4.55" rx="26.93" ry="4.55" transform="translate(622.55 495.277)" fill="#f58e3b" opacity="0.1"/>
      <g id="Group_273" data-name="Group 273" transform="translate(-62 -220)">
        <ellipse id="Ellipse_27" data-name="Ellipse 27" cx="40.21" cy="6.8" rx="40.21" ry="6.8" transform="translate(136.229 716.297)" fill="#f58e3b"/>
        <path id="Path_168" data-name="Path 168" d="M911.763,767a11.611,11.611,0,0,1-3.83-5.78c-.5-2.3.48-5.05,2.67-5.89,2.46-.94,5.09.76,7.09,2.48s4.27,3.69,6.88,3.33a10.5,10.5,0,0,1-3.24-9.81,4.11,4.11,0,0,1,.9-2c1.37-1.46,3.84-.83,5.48.32,5.2,3.66,6.65,10.72,6.68,17.08.52-2.29.08-4.68.09-7s.66-5,2.65-6.22a7.91,7.91,0,0,1,4-1c2.34-.08,4.95.15,6.54,1.86,2,2.12,1.47,5.69-.25,8s-4.35,3.8-6.77,5.42a15.13,15.13,0,0,0-4.84,4.61,4.7,4.7,0,0,0-.35.82H920.8a40.442,40.442,0,0,1-9.04-6.22Z" transform="translate(-751.993 -55.033)" fill="#f58e3b"/>
      </g>
      <path id="Path_169" data-name="Path 169" d="M218.131,782.516s-12.846-.393-16.737-3.155-19.775-6.05-20.737-1.623-19.315,22-4.8,22.118,33.717-2.26,37.583-4.619S218.131,782.516,218.131,782.516Z" transform="translate(449.022 -295.033)" fill="#a8a8a8"/>
      <g id="Group_274" data-name="Group 274" transform="translate(202.599 184.471)">
        <path id="Path_228" data-name="Path 228" d="M846.25,641.218h11.678a1.548,1.548,0,0,1,1.548,1.548v5.126a1.548,1.548,0,0,1-1.548,1.548h-1.935v7.681h-7.808V649.44H846.25a1.548,1.548,0,0,1-1.548-1.548v-5.126a1.548,1.548,0,0,1,1.548-1.548Z" transform="translate(-693.693 -512.291)" fill="#e6e6e6"/>
        <path id="Path_230" data-name="Path 230" d="M849.645,643.226a3.34,3.34,0,0,0,6.681,0" transform="translate(-694.654 -512.629)" opacity="0.2"/>
        <path id="Path_244" data-name="Path 244" d="M467.529,638.081H688.692l46.833-221.4h39.969v-9.934H727.474L680.64,628.146H467.529Z" transform="translate(-425.731 -406.752)" fill="#3f3d56"/>
        <circle id="Ellipse_59" data-name="Ellipse 59" cx="21.288" cy="21.288" r="21.288" transform="translate(209.264 229.2)" fill="#3f3d56"/>
        <circle id="Ellipse_60" data-name="Ellipse 60" cx="21.288" cy="21.288" r="21.288" transform="translate(50.314 229.2)" fill="#3f3d56"/>
        <path id="Path_245" data-name="Path 245" d="M730.414,720.768h215.18L983.56,533.145H694.786a10.2,10.2,0,0,0-10.078,11.784l35.63,167.221a10.152,10.152,0,0,0,10.076,8.618Zm212.842-2.838H730.414a7.325,7.325,0,0,1-7.272-6.22l-35.63-167.221a7.362,7.362,0,0,1,7.273-8.505H980.114Z" transform="translate(-684.584 -494.117)" fill="#3f3d56"/>
        <path id="Path_246" data-name="Path 246" d="M597.423,640.932,622.287,455.56l-2.8-.463L594.623,640.469Z" transform="translate(-378.245 -414.882)" fill="#3f3d56"/>
        <path id="Path_247" data-name="Path 247" d="M811.481,639.509l2.8-.454L790.145,455.1l-2.8.454Z" transform="translate(-730.553 -414.883)" fill="#3f3d56"/>
        <rect id="Rectangle_143" data-name="Rectangle 143" width="2.838" height="185.372" transform="translate(146.797 40.447)" fill="#3f3d56"/>
        <rect id="Rectangle_144" data-name="Rectangle 144" width="2.838" height="274.754" transform="matrix(-0.002, -1, 1, -0.002, 9.731, 93.619)" fill="#3f3d56"/>
        <rect id="Rectangle_145" data-name="Rectangle 145" width="241.383" height="2.838" transform="matrix(-1, -0.007, 0.007, -1, 270.465, 182.287)" fill="#3f3d56"/>
      </g>
      <g id="Group_272" data-name="Group 272" transform="translate(-114.079 20.313)">
        <path id="Path_131" data-name="Path 131" d="M424.293,349.988,330.96,334.8v88.364l88.679-4.642Z" transform="translate(296.556 4.716)" fill="#f58e3b"/>
        <path id="Path_133" data-name="Path 133" d="M519.887,334.8,407.96,343.176l6.194,76.9,105.733,3.091Z" transform="translate(107.629 4.716)" fill="#f58e3b"/>
        <path id="Path_138" data-name="Path 138" d="M424.84,341.71V459.528l35.042,6.727,17.042,3.273,39.382,7.564V356.28Z" transform="translate(90.749 6.182)" fill="#f58e3b"/>
        <path id="Path_140" data-name="Path 140" d="M450.668,372.76l-33.794-25.43L303.08,355.088l16.752,28.218Z" transform="translate(303.975 7.374)" fill="#f58e3b"/>
        <path id="Path_142" data-name="Path 142" d="M461.119,341.71l91.467,14.57-29.77,26.667L424.84,366.51Z" transform="translate(54.47 6.182)" fill="#f58e3b"/>
        <path id="Path_132" data-name="Path 132" d="M424.293,349.988,330.96,334.8v88.364l88.679-4.642Z" transform="translate(296.556 4.716)" opacity="0.05"/>
        <path id="Path_134" data-name="Path 134" d="M519.887,334.8,407.96,343.176l6.194,76.9,105.733,3.091Z" transform="translate(107.629 4.716)" opacity="0.1"/>
        <path id="Path_135" data-name="Path 135" d="M503.766,312.55l34.412,26.97L426.251,347.9,407.96,320.3Z" transform="translate(89.338 -0.003)" fill="#f58e3b"/>
        <path id="Path_136" data-name="Path 136" d="M430.207,324.82l-84.024-10.23-43.1,24.5,93.334,15.188Z" transform="translate(324.436 0.429)" fill="#f58e3b"/>
        <path id="Path_137" data-name="Path 137" d="M330.96,355.088V475.9l43.721-4.485,19.018-1.939,5.794-.606,19.006-1.952,26.255-2.691V347.33l-93.321,6.352Z" transform="translate(276.095 7.374)" fill="#f58e3b"/>
        <path id="Path_139" data-name="Path 139" d="M424.84,341.71V459.528l35.042,6.727,17.042,3.273,39.382,7.564V356.28Z" transform="translate(90.749 6.182)" fill="#f58e3b"/>
        <path id="Path_141" data-name="Path 141" d="M450.668,372.76l-33.794-25.43L303.08,355.088l16.752,28.218Z" transform="translate(303.975 7.374)" fill="#fff" opacity="0.1"/>
        <path id="Path_143" data-name="Path 143" d="M461.119,341.71l91.467,14.57-29.77,26.667L424.84,366.51Z" transform="translate(54.47 6.182)" fill="#fff" opacity="0.1"/>
        <path id="Path_144" data-name="Path 144" d="M457.33,449l17.043,3.273V427.094l-15.964-4.024Z" transform="translate(93.301 23.44)" fill="#fff" opacity="0.1"/>
        <path id="Path_145" data-name="Path 145" d="M373.08,435.96v16.655l19.018-1.939V435.96Z" transform="translate(277.697 26.175)" fill="#fff" opacity="0.1"/>
        <path id="Path_146" data-name="Path 146" d="M352.62,440.29v8.861l19.006-1.952V440.29Z" transform="translate(322.969 27.093)" fill="#fff" opacity="0.1"/>
      </g>
    </g>
    <text id="Your_Cart_is_Empty" data-name="Your Cart is 
Empty" transform="translate(-1658 881)" fill="#d28e57" font-size="52" font-family="Poppins-Medium, Poppins" font-weight="500" letter-spacing="0.01em"><tspan x="-160.706" y="0">Your Cart is </tspan><tspan x="-84.11" y="72">Empty</tspan></text>
  </g>
</svg>
